<svg width="44" height="45" viewBox="0 0 44 45" fill="none" xmlns="http://www.w3.org/2000/svg">
<g clip-path="url(#clip0_2054_159)">
<path d="M18.9775 1.92576C19.6707 1.39959 21.0765 1.85441 21.5976 2.06993C22.125 2.28814 23.0295 3.46652 24.6107 5.75843C25.594 7.18371 26.6631 9.3257 27.2899 10.457C28.1716 12.0482 28.6727 12.6519 29.2886 13.0264C29.4786 13.142 29.6597 13.2882 29.8267 13.4521C30.022 13.3904 30.2059 13.343 30.3734 13.3054C30.4216 13.2946 30.4696 13.2866 30.5167 13.2771C30.5 13.1555 30.4833 13.0043 30.4678 12.7896C30.5319 12.8488 30.6878 12.9982 30.9252 13.2092C31.6592 13.1131 32.2545 13.1801 32.7438 13.3286C32.869 12.8889 33.015 12.2683 33.1814 11.5332C33.4831 10.2011 34.2722 9.2945 35.0506 8.72949C35.9703 8.06188 37.0296 7.75992 37.7864 7.59926C38.6616 7.41349 39.3259 7.55723 39.6118 7.64903C40.1816 7.832 40.9997 9.07559 41.5556 10.4142C41.8279 11.0696 41.9296 12.369 42.0474 13.289C42.2335 14.7435 42.1506 15.3827 41.9993 15.8585C41.6362 17.0002 41.296 17.8941 41.0639 18.5961C40.8816 19.1475 40.5293 20.0815 40.3121 20.8369C39.9436 22.1187 39.9217 22.7905 39.8839 23.051C39.6782 24.4657 39.561 26.1639 39.484 26.5275C39.3885 26.9776 39.188 27.2923 38.7476 27.8869C38.4721 28.259 38.2945 29.0461 38.1118 30.0607C37.851 31.5076 38.1235 31.9069 37.7487 32.8378C37.4109 33.6767 36.6247 35.1955 36.2031 35.9951C35.985 36.4087 35.8606 36.6129 35.7903 36.71C36.1156 37.0283 34.9881 37.7652 34.7485 38.0951C34.4423 38.5167 34.1377 38.816 33.4071 39.2133C32.9677 39.4523 32.1225 39.7619 31.2925 40.2071C30.4625 40.6523 29.6542 41.1851 28.8999 41.5939C28.1455 42.0028 27.4694 42.2722 26.8874 42.4727C25.8491 42.8305 24.9588 42.9304 24.0228 42.9216C21.835 42.9009 20.9631 42.4455 20.5497 42.2968C19.9259 42.0725 19.3818 41.6968 18.7604 41.3442C17.9614 40.8908 17.0139 39.9356 16.1163 39.0236C15.6771 38.5774 15.3911 38.2704 15.1079 37.9809L14.593 37.4661C13.5202 36.3733 13.3633 35.8598 13.1744 35.5085C12.9688 35.1262 12.6401 34.6922 12.2776 34.3774C11.6427 33.826 11.3116 33.5256 10.732 32.9477C10.0566 32.6551 9.61961 32.2603 9.40097 31.9539C9.36986 31.9446 9.34393 31.9366 9.32715 31.929C9.3036 31.9183 9.28154 31.9062 9.26273 31.8955C9.22565 31.8743 9.18514 31.8481 9.14172 31.8183L9.12889 31.8097L9.11773 31.8003C8.71098 31.4782 7.70041 30.599 7.18337 29.9105C6.84485 29.4597 6.58828 29.0468 6.38611 28.7056C6.17487 28.3492 6.04473 28.1125 5.93041 27.9547C5.36804 27.1787 4.83461 26.4527 4.3891 25.8306C2.94769 23.8184 2.34778 22.7721 2.07799 22.3284C1.92586 22.078 1.85728 21.7856 1.82997 21.5089C1.8023 21.2281 1.81458 20.9334 1.84371 20.6584C1.90191 20.1088 2.03475 19.5896 2.11489 19.3187C2.2301 18.9294 2.36457 18.5203 2.6341 18.1181C2.73192 17.9721 2.8746 17.8424 3.01857 17.7319C3.16798 17.6173 3.34547 17.5032 3.53606 17.393C3.91745 17.1723 4.37763 16.9522 4.83364 16.7596C5.15675 16.6232 5.58602 16.5903 6.01537 16.6025C6.4591 16.6152 6.96149 16.6783 7.46572 16.7716C7.62831 16.8017 7.78984 16.8437 7.95145 16.8909C7.75491 16.7064 7.57345 16.5343 7.41337 16.3734C6.54754 15.5029 5.7003 13.752 4.48007 12.176C3.76547 11.253 3.73744 9.86624 3.89134 9.07533C4.0113 8.45985 4.9249 8.27278 5.73474 8.06697C7.40068 7.64358 8.01951 7.53543 8.33678 7.16415C8.84777 6.56542 8.24432 4.59995 8.36596 3.63612C8.42534 3.16767 9.25904 2.82913 10.8641 2.26817C12.1404 1.82217 13.7767 2.1675 14.635 2.61316C15.2413 2.92799 15.4489 3.43911 15.9593 3.76486C16.3045 3.9852 16.745 3.77335 17.1066 3.57091C18.0847 3.02335 18.3233 2.42247 18.9775 1.92576Z" fill="#28E07C"/>
<path d="M29.1788 19.6957C27.5798 20.8951 25.166 23.3742 25.166 26.7764C25.166 29.5593 27.0084 32.0319 27.7223 32.9742" stroke="black" stroke-width="2.63636" stroke-linecap="round"/>
<path d="M16.4248 1.89283C17.5026 0.622596 18.9401 0.321014 20.1729 0.476816C21.3524 0.625994 22.4679 1.20606 23.0459 1.89186V1.89283L23.0781 1.93189L23.0898 1.94752V1.9485L31.1094 13.1311L31.6426 13.8743L31.8887 12.9934C32.1704 11.9872 32.6093 10.8796 33.3516 9.73756C34.2174 8.40578 35.6144 7.88677 36.7627 7.70436C37.9051 7.52295 38.9591 7.64692 39.3906 7.75807C40.4442 8.02952 41.1851 8.84505 41.6719 9.73658L41.8643 10.1223C42.3501 11.1789 42.5937 12.4317 42.5938 13.5383C42.5936 14.4713 42.3351 15.8239 42.0586 17.0823C41.7657 18.4155 41.4596 19.6151 41.2764 20.4993C41.0995 21.3531 40.7885 23.7271 40.3184 26.5647C39.8586 29.3399 39.2536 32.5022 38.5078 34.7395C36.9322 39.4655 32.1914 43.4342 24.4062 44.1389C22.4267 44.318 20.2413 43.5227 18.2686 42.3958C16.2724 41.2555 14.3705 39.7046 12.9209 38.1985C12.1053 37.351 11.3843 36.4353 10.7012 35.5315C10.0084 34.6149 9.36784 33.7292 8.67285 32.8743L1.51172 24.0637L1.50293 24.054C1.01023 23.4806 0.582358 22.5178 0.46875 21.4739C0.349096 20.3731 0.568909 19.0782 1.53809 17.9944C2.39271 17.0389 3.5003 16.6535 4.56152 16.5823L5.38965 16.5266L4.87793 15.8733L3.50977 14.1272L3.52051 14.1174L3.2666 13.8128C2.85006 13.3129 2.38875 12.4872 2.25 11.4973C2.10209 10.4408 2.32491 9.21722 3.2998 8.08424C4.17095 7.07201 5.28194 6.71961 6.31055 6.71998H6.83887L6.74316 6.20045C6.73001 6.12916 6.71772 6.05875 6.70801 5.98853C6.55393 4.873 6.78476 3.57897 7.80566 2.37525C8.8834 1.10506 10.3211 0.803481 11.5537 0.959238C12.7353 1.10869 13.8526 1.69082 14.4297 2.37818L14.4307 2.37916L14.4502 2.40357L14.4629 2.42018L14.4658 2.42506L14.9482 3.08326L15.3867 3.68092L15.7012 3.01002C15.876 2.63641 16.1125 2.261 16.4248 1.89283ZM19.9531 2.22096C19.1692 2.12182 18.3756 2.31071 17.7656 3.02955C17.098 3.8164 16.976 4.59699 17.0684 5.26588C17.1655 5.96862 17.5053 6.56349 17.7656 6.87037C17.8277 6.94359 17.8751 7.02422 17.9092 7.10768L17.9297 7.15748L17.9609 7.20045L23.5176 14.7952C23.8038 15.1868 23.7187 15.7361 23.3271 16.0227C22.9354 16.3093 22.385 16.2245 22.0986 15.8333L13.0879 3.51686L13.0742 3.49732L13.0586 3.48072L12.9385 3.36646C12.8021 3.2504 12.6183 3.13029 12.4082 3.02662C12.1195 2.88419 11.7516 2.75624 11.334 2.70338C10.5501 2.60425 9.75654 2.79235 9.14648 3.511V3.51197C8.56269 4.20035 8.3964 4.88413 8.42578 5.49244L8.44922 5.7483C8.54642 6.45077 8.88623 7.04591 9.14648 7.35279L9.14746 7.35377L9.15332 7.36061L9.1709 7.38307L9.17285 7.38502L18.0732 18.926C18.3694 19.3103 18.2981 19.862 17.9141 20.1585C17.5297 20.4545 16.9778 20.3832 16.6816 19.9993L8.5918 9.50709L8.54297 9.44459L8.47559 9.4026C8.39989 9.3553 8.33069 9.2973 8.27148 9.22779V9.22682C8.15152 9.08618 7.93003 8.93103 7.67383 8.80396C7.40461 8.67045 7.05475 8.54748 6.65332 8.49732C5.92274 8.40633 5.19166 8.58027 4.63184 9.23072C4.01569 9.94685 3.90612 10.6516 3.99023 11.2532C4.07933 11.8887 4.39208 12.4289 4.63086 12.7073V12.7083L4.64062 12.719V12.72L4.66016 12.7444L13.0449 23.4641C13.325 23.8222 13.2833 24.3312 12.9619 24.6399L12.8936 24.6985C12.5351 24.9785 12.0272 24.9368 11.7188 24.6155L11.6602 24.5471L7.45898 19.1751L7.16895 18.804L7.07227 18.8899C6.96958 18.8291 6.84838 18.7637 6.70605 18.7014C6.32969 18.5367 5.87002 18.4068 5.3877 18.3538C4.40855 18.2463 3.47579 18.4646 2.84863 19.1653C2.28781 19.7924 2.13715 20.5522 2.2168 21.2844C2.29951 22.0434 2.61997 22.6665 2.84766 22.9221V22.9231L2.875 22.9544V22.9553L10.0371 31.7649C10.7581 32.6519 11.4402 33.5934 12.1035 34.471C12.7765 35.3614 13.4473 36.2107 14.1885 36.9807C15.5365 38.3812 17.3073 39.8231 19.1406 40.8704C20.9976 41.9312 22.8004 42.519 24.248 42.3879C31.489 41.7325 35.5305 38.1141 36.8408 34.1838C37.5379 32.0925 38.1239 29.0539 38.584 26.2766C39.0333 23.5644 39.3718 21.0305 39.5557 20.1428C39.7328 19.2879 40.0773 17.9137 40.3428 16.7053C40.625 15.4209 40.8357 14.2518 40.8359 13.5393V13.5383C40.8359 12.6603 40.6376 11.6613 40.2676 10.8567C39.8847 10.0244 39.4065 9.57747 38.9531 9.46021C38.753 9.40866 37.9409 9.29734 37.0381 9.44068C36.1387 9.58359 35.3099 9.95002 34.8252 10.6956C33.5119 12.7161 33.3183 14.5434 33.083 16.1135L33.0791 16.1428V16.1731C33.0757 16.4452 32.9486 16.7088 32.7139 16.8772C32.3195 17.1599 31.7702 17.0693 31.4873 16.6751L21.7051 3.03346L21.6885 3.011L21.6699 2.99049L21.5498 2.87721C21.4133 2.76248 21.2294 2.64425 21.0195 2.54127C20.732 2.40024 20.3673 2.2734 19.9531 2.22096Z" fill="black" stroke="black" stroke-width="0.878788"/>
</g>
<defs>
<clipPath id="clip0_2054_159">
<rect width="43.0606" height="44.8182" fill="white"/>
</clipPath>
</defs>
</svg>
