<svg width="76" height="32" viewBox="0 0 76 32" fill="none" xmlns="http://www.w3.org/2000/svg">
<path d="M1.5542 25V11.7893H5.36201V14.8977H5.43972V25H1.5542ZM10.4391 25V16.6073C10.4391 15.9338 10.2577 15.4416 9.8951 15.1308C9.54972 14.8027 9.05756 14.6386 8.41861 14.6386C7.866 14.6386 7.35657 14.7682 6.89031 15.0272C6.44131 15.269 6.0873 15.623 5.82827 16.0892C5.56923 16.5382 5.43972 17.0736 5.43972 17.6952L5.10297 14.7163C5.53469 13.7493 6.15638 12.9808 6.96802 12.4109C7.79692 11.8238 8.78989 11.5302 9.94691 11.5302C11.3284 11.5302 12.3991 11.9188 13.1589 12.6959C13.936 13.473 14.3246 14.4487 14.3246 15.623V25H10.4391ZM19.3239 25V16.6073C19.3239 15.9338 19.1426 15.4416 18.78 15.1308C18.4346 14.8027 17.9424 14.6386 17.3035 14.6386C16.7509 14.6386 16.2414 14.7682 15.7752 15.0272C15.3262 15.269 14.9722 15.623 14.7131 16.0892C14.4541 16.5382 14.3246 17.0736 14.3246 17.6952L13.7288 14.7163C14.1605 13.7493 14.7995 12.9808 15.6457 12.4109C16.5091 11.8238 17.5452 11.5302 18.7541 11.5302C20.1874 11.5302 21.284 11.936 22.0438 12.7477C22.8209 13.5421 23.2095 14.5868 23.2095 15.882V25H19.3239ZM33.3765 25C33.2729 24.6201 33.1952 24.2143 33.1434 23.7825C33.1089 23.3508 33.0916 22.85 33.0916 22.2801H32.988V16.0374C32.988 15.5021 32.8067 15.0876 32.444 14.7941C32.0986 14.4832 31.5806 14.3278 30.8898 14.3278C30.2336 14.3278 29.7069 14.44 29.3097 14.6645C28.9298 14.889 28.6794 15.2171 28.5585 15.6489H24.8543C25.027 14.4573 25.6401 13.473 26.6935 12.6959C27.7469 11.9188 29.1888 11.5302 31.0193 11.5302C32.9189 11.5302 34.3695 11.9533 35.3711 12.7995C36.3727 13.6457 36.8735 14.8631 36.8735 16.4519V22.2801C36.8735 22.7119 36.8994 23.1522 36.9512 23.6012C37.0203 24.0329 37.1239 24.4992 37.262 25H33.3765ZM28.7657 25.259C27.4533 25.259 26.4085 24.9309 25.6314 24.2747C24.8543 23.6012 24.4658 22.7119 24.4658 21.6067C24.4658 20.3806 24.9234 19.3962 25.8386 18.6537C26.7712 17.8938 28.0663 17.4017 29.7242 17.1772L33.5838 16.6332V18.8868L30.3717 19.379C29.681 19.4826 29.1716 19.6725 28.8434 19.9488C28.5153 20.2251 28.3513 20.6051 28.3513 21.0886C28.3513 21.5203 28.5067 21.8484 28.8175 22.0729C29.1284 22.2974 29.5428 22.4097 30.0609 22.4097C30.8725 22.4097 31.5633 22.1938 32.1332 21.7621C32.703 21.3131 32.988 20.795 32.988 20.2079L33.3506 22.2801C32.9707 23.2645 32.3922 24.007 31.6151 24.5078C30.838 25.0086 29.8882 25.259 28.7657 25.259ZM39.0828 25V11.7893H42.8906V14.8977H42.9683V25H39.0828ZM48.2785 25V16.8145C48.2785 16.0892 48.0885 15.5453 47.7086 15.1826C47.346 14.82 46.8106 14.6386 46.1026 14.6386C45.4982 14.6386 44.9542 14.7768 44.4707 15.0531C44.0044 15.3294 43.6331 15.7093 43.3568 16.1928C43.0978 16.6764 42.9683 17.2462 42.9683 17.9025L42.6315 14.7163C43.0633 13.7493 43.6936 12.9808 44.5225 12.4109C45.3687 11.8238 46.4048 11.5302 47.6309 11.5302C49.0988 11.5302 50.2212 11.9447 50.9983 12.7736C51.7754 13.5852 52.164 14.6818 52.164 16.0633V25H48.2785ZM60.6121 25.259C59.1616 25.259 57.8837 24.9741 56.7784 24.4042C55.6905 23.8171 54.8357 23.0054 54.214 21.9693C53.6096 20.9159 53.3074 19.7071 53.3074 18.3428C53.3074 16.9786 53.6096 15.787 54.214 14.7682C54.8357 13.7493 55.6905 12.9549 56.7784 12.385C57.8837 11.8152 59.1616 11.5302 60.6121 11.5302C62.08 11.5302 63.3579 11.8152 64.4458 12.385C65.5511 12.9549 66.4059 13.7493 67.0103 14.7682C67.6147 15.787 67.9169 16.9786 67.9169 18.3428C67.9169 19.7071 67.6061 20.9159 66.9844 21.9693C66.38 23.0054 65.5252 23.8171 64.4199 24.4042C63.332 24.9741 62.0627 25.259 60.6121 25.259ZM60.6121 22.2024C61.2166 22.2024 61.7605 22.047 62.2441 21.7362C62.7449 21.4253 63.142 20.985 63.4356 20.4151C63.7292 19.828 63.876 19.1286 63.876 18.3169C63.876 17.1254 63.5565 16.2101 62.9175 15.5712C62.2959 14.9149 61.5274 14.5868 60.6121 14.5868C59.6969 14.5868 58.9198 14.9149 58.2808 15.5712C57.6592 16.2274 57.3483 17.1426 57.3483 18.3169C57.3483 19.1286 57.4951 19.828 57.7887 20.4151C58.0822 20.985 58.4708 21.4253 58.9543 21.7362C59.4551 22.047 60.0077 22.2024 60.6121 22.2024Z" fill="#FF3C1F"/>
<path d="M70.3027 11.5752H74.0898V24.8394C74.0898 26.0316 73.1234 26.998 71.9312 26.998H70.3027V11.5752Z" fill="#FF3C1F"/>
<path d="M63.3125 26.9995L63.3117 30.7865L68.1416 30.7875C69.3337 30.7878 70.3004 29.8215 70.3006 28.6294L70.301 27.0009L63.3125 26.9995Z" fill="#FF3C1F"/>
<rect x="69.002" y="2.96295" width="6.3873" height="6.38816" rx="3.19365" fill="#FF3C1F"/>
</svg>
